<?xml version="1.0" encoding="UTF-8"?>
<svg version="1.1" xmlns="http://www.w3.org/2000/svg" width="1024" height="1024">
<path d="M0 0 C337.92 0 675.84 0 1024 0 C1024 337.92 1024 675.84 1024 1024 C686.08 1024 348.16 1024 0 1024 C0 686.08 0 348.16 0 0 Z " fill="#FEFEFE" transform="translate(0,0)"/>
<path d="M0 0 C12.60480658 -0.11609011 25.20948499 -0.20481521 37.81471825 -0.25906086 C43.668501 -0.28510231 49.52191672 -0.32040125 55.37548828 -0.37719727 C61.02949228 -0.43171068 66.68314428 -0.46146152 72.3373909 -0.47438622 C74.48948326 -0.48359138 76.64155737 -0.50156684 78.79349899 -0.52865028 C81.81896644 -0.56519704 84.84299804 -0.5699346 87.86865234 -0.56762695 C88.74907196 -0.58560333 89.62949158 -0.60357971 90.53659058 -0.62210083 C97.9318719 -0.56146848 104.41556929 1.74223788 109.95017052 6.77244091 C115.03017113 12.23013887 116.29051106 17.5865248 116.23242188 24.88793945 C115.74324467 31.43787831 114.05666333 37.80740113 112.5625 44.1875 C112.20476056 45.74890181 111.84792647 47.31051129 111.49194336 48.87231445 C110.73643306 52.17803986 109.97418034 55.48211295 109.20703125 58.78515625 C108.16708167 63.26728807 107.14396454 67.75308348 106.12611389 72.24028015 C105.3075177 75.8484035 104.48508585 79.45564454 103.66159058 83.06265259 C103.26236473 84.81181536 102.86386551 86.56114414 102.46609497 88.31063843 C101.90955706 90.75355002 101.34811172 93.19527921 100.78515625 95.63671875 C100.6188269 96.37039673 100.45249756 97.10407471 100.28112793 97.85998535 C99.11452311 102.88547689 99.11452311 102.88547689 98 104 C96.29227642 104.08713831 94.58101351 104.10700007 92.87109375 104.09765625 C91.31938477 104.09282227 91.31938477 104.09282227 89.73632812 104.08789062 C88.64771484 104.07951172 87.55910156 104.07113281 86.4375 104.0625 C84.7987793 104.05573242 84.7987793 104.05573242 83.12695312 104.04882812 C80.41791505 104.03699826 77.70898401 104.02051543 75 104 C76.91348448 112.72986622 78.83067915 121.45891518 80.75 130.1875 C80.89427933 130.84377254 81.03855865 131.50004509 81.18721008 132.17620468 C86.13468352 154.67717562 91.1733144 177.15588144 96.30371094 199.6159668 C96.66698486 201.21038101 96.66698486 201.21038101 97.03759766 202.83700562 C97.48658044 204.80718504 97.93699133 206.77703983 98.38916016 208.74649048 C99.39215365 213.15029693 100.32374615 217.5311045 101 222 C90.53417398 221.41940495 80.11580212 220.59160174 69.68533325 219.55917358 C51.72631804 217.7856306 33.75457648 216.15854122 15.77911377 214.56213379 C-34.75130358 210.07399158 -85.26032215 205.36279031 -135.75 200.4375 C-136.48905453 200.36540691 -137.22810905 200.29331383 -137.98955917 200.2190361 C-141.68739819 199.85828505 -145.38522726 199.49743202 -149.08305359 199.1365509 C-150.55016058 198.99337617 -152.01726772 198.85020295 -153.484375 198.70703125 C-154.20697321 198.63651236 -154.92957142 198.56599346 -155.67406654 198.49333763 C-171.07393621 196.99069662 -186.47466331 195.49715126 -201.8770752 194.02078247 C-204.58252049 193.76136009 -207.28783834 193.5006689 -209.99304199 193.23873901 C-223.31885288 191.95024062 -236.6265864 190.67230476 -250 190 C-246.71607719 187.81071813 -245.78239826 187.75070777 -241.97688007 187.75390434 C-240.41084253 187.7479312 -240.41084253 187.7479312 -238.81316787 187.74183738 C-237.6624038 187.74766307 -236.51163973 187.75348875 -235.32600403 187.75949097 C-233.49681121 187.75692769 -233.49681121 187.75692769 -231.630665 187.75431263 C-228.23968837 187.75158197 -224.84894115 187.75785513 -221.4579922 187.76786876 C-217.80361404 187.77648789 -214.14924325 187.77358419 -210.49485779 187.77206421 C-204.16136297 187.77101438 -197.82790929 187.77730117 -191.49442482 187.78853989 C-182.33722167 187.80477871 -173.18003845 187.81000123 -164.02282246 187.81251587 C-149.16665226 187.81689552 -134.31050399 187.83021193 -119.4543457 187.84912109 C-105.02107859 187.86747292 -90.58781743 187.88163283 -76.15454102 187.89013672 C-75.2652045 187.89066217 -74.37586799 187.89118761 -73.45958189 187.89172898 C-68.9981406 187.89433902 -64.53669926 187.89686644 -60.0752579 187.89935279 C-23.05015644 187.92009369 13.97492007 187.95532655 51 188 C50.85686088 187.28434529 50.71372175 186.56869059 50.56624508 185.83134937 C49.91061037 182.55333935 49.25498771 179.27532692 48.59936523 175.99731445 C48.37420982 174.87160286 48.14905441 173.74589127 47.91707611 172.5860672 C47.27799269 169.39072307 46.6389707 166.19536667 46 163 C45.83719543 162.18588181 45.67439087 161.37176363 45.50665283 160.5329752 C42.30109328 144.49751277 39.32507112 128.44051103 36.625 112.3125 C36.49167267 111.52120697 36.35834534 110.72991394 36.22097778 109.91464233 C35.84383566 107.66899769 35.47168099 105.42259302 35.1015625 103.17578125 C34.88838379 101.88583252 34.67520508 100.59588379 34.45556641 99.2668457 C34 96 34 96 34 92 C32.68 92 31.36 92 30 92 C29.83914917 93.83981445 29.83914917 93.83981445 29.67504883 95.71679688 C28.99857251 101.76771874 27.60163029 107.61365859 26.19921875 113.53125 C25.92157181 114.72117554 25.64392487 115.91110107 25.35786438 117.13708496 C24.47261395 120.92588304 23.58017664 124.71294552 22.6875 128.5 C22.09913432 131.01290965 21.51123943 133.52592958 20.92382812 136.0390625 C19.28884709 143.02753314 17.64532446 150.01395678 16 157 C14.68 162.61 13.36 168.22 12 174 C-0.54 174 -13.08 174 -26 174 C-25.37990991 167.79909905 -24.82748497 162.55311481 -23.42578125 156.63671875 C-23.26562027 155.95169281 -23.10545929 155.26666687 -22.94044495 154.56088257 C-22.58925473 153.06192242 -22.2352061 151.56362968 -21.87860107 150.06594849 C-21.29289494 147.60513021 -20.71505665 145.142575 -20.13916016 142.67944336 C-19.49369092 139.91889785 -18.84776859 137.15846638 -18.19976807 134.39851379 C-12.9557879 112.05629246 -7.8636957 89.67805272 -2.75561523 67.30444336 C-2.06935477 64.30330109 -1.3801796 61.30285135 -0.68945312 58.30273438 C0.19434299 54.46207431 1.06859705 50.61941961 1.93206787 46.7741394 C2.35539231 44.8993377 2.78902078 43.02687153 3.22314453 41.15454102 C5.50257265 30.88957172 5.66519991 22.66809377 2.5 12.625 C2.02662269 11.07692824 1.55770126 9.52748528 1.09375 7.9765625 C0.88427734 7.30705566 0.67480469 6.63754883 0.45898438 5.94775391 C0 4 0 4 0 0 Z " fill="#0C0D0C" transform="translate(735,401)"/>
<path d="M0 0 C19.8 0 39.6 0 60 0 C58.87505968 8.99952253 58.87505968 8.99952253 57.95605469 12.70581055 C57.75204041 13.53835861 57.54802612 14.37090668 57.33782959 15.22868347 C57.11806458 16.10583511 56.89829956 16.98298676 56.671875 17.88671875 C56.44099182 18.82441605 56.21010864 19.76211334 55.972229 20.72822571 C55.23576504 23.71572705 54.49313375 26.70165152 53.75 29.6875 C52.78494797 33.58686684 51.82227276 37.48681948 50.859375 41.38671875 C50.62287231 42.34246796 50.38636963 43.29821716 50.1427002 44.28292847 C47.69941464 54.17381311 45.34234525 64.08479869 43 74 C47.5963416 72.63938038 49.14909573 70.86340298 51.56640625 66.78515625 C52.21029297 65.71652344 52.85417969 64.64789063 53.51757812 63.546875 C54.1992979 62.38546312 54.8809366 61.22400365 55.5625 60.0625 C56.27773448 58.86755303 56.99454771 57.67354967 57.71289062 56.48046875 C59.15066689 54.09146039 60.58311676 51.69938851 62.01220703 49.30517578 C64.60627454 44.99192524 67.28970035 40.74079408 70 36.5 C75.71354835 27.51799824 81.28065386 18.4468039 86.83398438 9.36523438 C87.49076172 8.29337891 88.14753906 7.22152344 88.82421875 6.1171875 C89.41291748 5.15409668 90.00161621 4.19100586 90.6081543 3.19873047 C92 1 92 1 93 0 C95.8116338 -0.08861992 98.59858255 -0.11522355 101.41015625 -0.09765625 C102.25219101 -0.0962413 103.09422577 -0.09482635 103.96177673 -0.09336853 C106.66205335 -0.08775263 109.36224828 -0.07519748 112.0625 -0.0625 C113.88867068 -0.05748705 115.71484266 -0.05292379 117.54101562 -0.04882812 C122.02737542 -0.03777804 126.51367384 -0.02050279 131 0 C129.65516153 3.63236245 128.02155966 6.76881979 125.9453125 10.03515625 C125.3366333 10.9991333 124.7279541 11.96311035 124.10083008 12.95629883 C123.44880615 13.98134521 122.79678223 15.0063916 122.125 16.0625 C117.26599982 23.76236111 112.46451103 31.48575301 107.8125 39.3125 C103.95795035 45.78351022 100.02803395 52.19797088 96 58.5625 C95.51418457 59.33480957 95.02836914 60.10711914 94.52783203 60.90283203 C91.92654546 65.022754 89.27192306 69.09618659 86.54296875 73.1328125 C85.70088867 74.40209595 85.70088867 74.40209595 84.84179688 75.69702148 C83.7685587 77.3127391 82.67828034 78.91731497 81.56835938 80.50805664 C79.13243489 84.20869425 78.00077876 86.24927962 77.99609375 90.765625 C78.29743823 92.18456369 78.63611769 93.59579732 79 95 C79.19198975 95.88469971 79.38397949 96.76939941 79.58178711 97.6809082 C80.30658602 100.98497301 81.08769287 104.27277711 81.875 107.5625 C82.33613413 109.51696093 82.79725462 111.4714251 83.25805664 113.42596436 C83.7777091 115.62725227 84.29925592 117.82808408 84.82128906 120.02880859 C86.89481802 128.77136884 88.95967973 137.51595279 91.0166626 146.26242065 C91.73450005 149.30921195 92.45675027 152.35493421 93.17919922 155.40063477 C93.63530485 157.33735203 94.09120515 159.27411766 94.546875 161.2109375 C94.74981171 162.06130081 94.95274841 162.91166412 95.16183472 163.78779602 C97.04535395 171.83068708 98.47189675 179.850116 100 188 C195.37 188 290.74 188 389 188 C389 188.66 389 189.32 389 190 C388.3902684 190.05153732 387.7805368 190.10307465 387.15232849 190.15617371 C355.75773635 192.81470167 324.41323416 195.70173215 293.09260559 199.12670898 C283.94256061 200.12352609 274.78481351 201.03570575 265.625 201.9375 C248.97241318 203.58192473 232.32917342 205.31125271 215.6875 207.0625 C214.50609436 207.18656219 213.32468872 207.31062439 212.10748291 207.43844604 C200.99003315 208.60669973 189.87398046 209.78345126 178.76550293 211.03445435 C159.75535437 213.1744621 140.72562859 215.12300854 121.69506836 217.0715332 C116.63480551 217.58980947 111.57495665 218.11202327 106.51518536 218.63507366 C102.58031445 219.04117448 98.64516824 219.4445559 94.70993996 219.84717751 C92.84197572 220.03875041 90.97411341 220.23131997 89.10635948 220.42493248 C86.51479482 220.69330696 83.92286521 220.95784165 81.33081055 221.22143555 C80.57193542 221.30087906 79.8130603 221.38032257 79.03118896 221.46217346 C75.00294911 221.8674069 71.04825743 222.07945283 67 222 C62.39464741 201.02827899 57.8383498 180.0464803 53.33789062 159.05200195 C52.69348674 156.04622982 52.04793539 153.04070769 51.40136719 150.03540039 C48.20846121 135.19318704 45.02952473 120.34947123 42.0390625 105.46484375 C41.82889496 104.42203751 41.61872742 103.37923126 41.40219116 102.30482483 C41.21484406 101.36239426 41.02749695 100.41996368 40.83447266 99.44897461 C40.67194 98.6320665 40.50940735 97.81515839 40.34194946 96.97349548 C40 95 40 95 40 93 C39.01 93 38.02 93 37 93 C36.89059082 93.91378418 36.78118164 94.82756836 36.66845703 95.76904297 C35.89564099 101.15283201 34.5683292 106.40971432 33.3046875 111.6953125 C33.0361496 112.82934509 32.76761169 113.96337769 32.49093628 115.1317749 C31.62212561 118.79694378 30.74877066 122.46101069 29.875 126.125 C29.28010329 128.62772649 28.68537686 131.13049346 28.09082031 133.63330078 C26.65202999 139.68603544 25.20917035 145.73779198 23.76525879 151.78930664 C22.89021078 155.46062788 22.01904848 159.13285901 21.14883423 162.80532837 C20.35254238 166.16268056 19.55128054 169.5188349 18.75 172.875 C18.47526855 174.03531738 18.20053711 175.19563477 17.91748047 176.39111328 C17.67143066 177.41446777 17.42538086 178.43782227 17.171875 179.4921875 C16.8639502 180.78165283 16.8639502 180.78165283 16.54980469 182.09716797 C16 184 16 184 15 185 C12.26105915 185.08858646 9.5474673 185.11523479 6.80859375 185.09765625 C5.98875504 185.0962413 5.16891632 185.09482635 4.32423401 185.09336853 C1.69528618 185.08775289 -0.93357773 185.07519779 -3.5625 185.0625 C-5.34049357 185.05748701 -7.11848846 185.05292376 -8.89648438 185.04882812 C-13.26435545 185.03777839 -17.63216348 185.02050331 -22 185 C-21.3208269 178.48138326 -20.00801836 172.23868552 -18.5078125 165.86328125 C-17.97086019 163.54769012 -17.4339139 161.2320976 -16.89697266 158.91650391 C-16.60912903 157.682005 -16.3212854 156.4475061 -16.02471924 155.17559814 C-14.45267525 148.42575892 -12.89833404 141.67184698 -11.34375 134.91796875 C-11.17628895 134.19081665 -11.0088279 133.46366455 -10.83629227 132.71447754 C-6.47737699 113.7820566 -2.1823725 94.8352693 2.0791626 75.88070679 C2.94153525 72.04639977 3.80771084 68.21298231 4.67718506 64.38027954 C5.71132267 59.82116574 6.7381921 55.26047459 7.75959778 50.69849205 C8.13967179 49.00652446 8.52227551 47.31512286 8.90757751 45.62433815 C9.43806946 43.2941998 9.95916047 40.96214484 10.47802734 38.62939453 C10.63372633 37.95545308 10.78942532 37.28151163 10.94984245 36.58714771 C12.276204 30.5395733 13.08348916 24.98684729 9.8828125 19.484375 C9.44066406 18.70835937 8.99851562 17.93234375 8.54296875 17.1328125 C8.07503906 16.34648437 7.60710937 15.56015625 7.125 14.75 C6.66480469 13.94820313 6.20460938 13.14640625 5.73046875 12.3203125 C3.90005233 9.1475907 2.03247101 6.04870651 0 3 C0 2.01 0 1.02 0 0 Z " fill="#0C0C0C" transform="translate(78,401)"/>
<path d="M0 0 C11.82256501 -0.06967585 23.64508074 -0.12290044 35.46780968 -0.15543652 C40.9582688 -0.17105643 46.44858688 -0.19222744 51.93896484 -0.22631836 C57.24281821 -0.259043 62.54653636 -0.27688062 67.85048294 -0.28463173 C69.86856844 -0.29015177 71.88664699 -0.30093081 73.90467453 -0.31719017 C76.74308709 -0.33913874 79.5809491 -0.34195968 82.41943359 -0.34057617 C83.24374878 -0.351362 84.06806396 -0.36214783 84.9173584 -0.3732605 C93.89377285 -0.32627348 101.80371938 1.71800903 108.3046875 8.07421875 C114.41075536 15.01037417 114.60764925 21.86249475 114.17914581 30.84037781 C113.61196381 37.67781835 111.84728093 44.35560728 110.2734375 51.015625 C109.88280597 52.72279513 109.4936484 54.43030311 109.10586548 56.13812256 C108.08668569 60.6091667 107.04842203 65.07555367 106.00561523 69.5411377 C104.96787713 73.99883152 103.94728153 78.46043744 102.92578125 82.921875 C101.73327791 88.12568451 100.53888578 93.32902168 99.33421326 98.5300293 C96.76836446 109.60943356 94.26042927 120.699012 91.85934448 131.81549072 C88.92792869 145.23545971 84.9565052 157.31338772 73.44140625 165.91015625 C71.00846787 167.41731899 68.57319146 168.74967646 66 170 C65.33613281 170.32613281 64.67226563 170.65226563 63.98828125 170.98828125 C57.90724604 173.77157502 52.32751969 174.1444715 45.72143555 174.11352539 C44.90140549 174.11367142 44.08137543 174.11381744 43.23649597 174.1139679 C40.53654296 174.1132734 37.83665965 174.1055027 35.13671875 174.09765625 C33.26056455 174.09579043 31.38440987 174.0943673 29.508255 174.09336853 C24.577979 174.0895563 19.6477326 174.07973707 14.71746826 174.06866455 C9.68339437 174.05842259 4.64931569 174.05386494 -0.38476562 174.04882812 C-10.2565234 174.03811364 -20.12825924 174.02105276 -30 174 C-29.81643228 173.18278048 -29.81643228 173.18278048 -29.62915611 172.34905148 C-28.23188456 166.12854619 -26.8346697 159.90802817 -25.4375 153.6875 C-25.15497375 152.42962677 -24.87244751 151.17175354 -24.58135986 149.87576294 C-21.61356009 136.66062396 -18.65072564 123.44438719 -15.69563866 110.22640038 C-15.21025722 108.05555124 -14.72469949 105.88474161 -14.23908997 103.71394348 C-12.77605208 97.17332826 -11.31378327 90.63254747 -9.8558054 84.09080219 C-4.19340219 58.68981891 -4.19340219 58.68981891 -1.23046875 46.265625 C-1.03213943 45.4277243 -0.83381012 44.58982361 -0.62947083 43.72653198 C0.23165562 40.08857522 1.10375502 36.45449284 2.0065918 32.82666016 C4.1668317 23.75450281 4.11021104 17.0340368 1.4375 8.125 C0.56511876 5.19480083 0 3.07201909 0 0 Z " fill="#0B0B0B" transform="translate(266,401)"/>
<path d="M0 0 C1.29186722 -0.0127597 2.58373444 -0.02551941 3.91474915 -0.03866577 C5.31320037 -0.04172402 6.71165362 -0.04395146 8.11010742 -0.04541016 C9.55970895 -0.05184594 11.0093092 -0.05857487 12.45890808 -0.06558228 C15.49249276 -0.077529 18.52596379 -0.08126585 21.55957031 -0.08007812 C25.42627486 -0.0798752 29.29224229 -0.10716109 33.15877247 -0.14162254 C36.15214818 -0.16397982 39.14534905 -0.16791297 42.13879967 -0.16685867 C43.56321436 -0.169202 44.98763481 -0.17795324 46.41196632 -0.19352341 C56.55912927 -0.29405717 63.22411974 0.96817793 71.71557617 6.41552734 C77.26371997 12.35075094 78.75972286 18.70888507 78.69726562 26.66152954 C78.0238426 34.96859372 75.84635753 43.08283491 73.98510742 51.18896484 C73.52527191 53.23021581 73.06644348 55.27169388 72.60856628 57.31338501 C71.40274046 62.67686585 70.18267436 68.03700993 68.9597168 73.39660645 C67.73310557 78.78496309 66.52116261 84.17661487 65.30737305 89.56787109 C62.69575083 101.14743689 60.07483212 112.72467054 57.40307617 124.29052734 C57.07143274 125.73122463 57.07143274 125.73122463 56.73308945 127.20102692 C56.06915542 130.07663144 55.39863655 132.95062136 54.72607422 135.82421875 C54.52604451 136.69256536 54.3260148 137.56091198 54.11992359 138.45557213 C51.09378308 151.28305524 44.78733197 161.55753964 33.40307617 168.72802734 C24.36448128 173.98484903 15.84840257 174.7482244 5.53198242 174.72412109 C4.21447495 174.72936295 2.89696747 174.7346048 1.53953552 174.74000549 C-1.23659925 174.7488901 -4.01244563 174.74656719 -6.78857422 174.73657227 C-10.31998764 174.7250875 -13.85040027 174.74530874 -17.3816824 174.7744894 C-20.78551093 174.79740424 -24.18911412 174.79037809 -27.59301758 174.78662109 C-28.84747177 174.79785507 -30.10192596 174.80908905 -31.39439392 174.82066345 C-39.20673775 174.75915309 -46.95802793 174.15670649 -53.20603943 168.94944763 C-58.96294228 162.57266117 -59.87843366 156.78346134 -59.78414917 148.56521606 C-59.48377824 143.31153998 -58.38709604 138.33860717 -57.19458008 133.22412109 C-56.930569 132.04401962 -56.66655792 130.86391815 -56.39454651 129.64805603 C-55.80053315 126.99688582 -55.20196801 124.34713265 -54.597229 121.69842529 C-53.50980395 116.92423525 -52.45477625 112.14306648 -51.40112305 107.36132812 C-49.59507058 99.17390971 -47.77006691 90.99090075 -45.93190575 82.81063271 C-44.86959824 78.08228718 -43.81121667 73.35314152 -42.76220703 68.62182617 C-41.72665547 63.9515284 -40.68129804 59.28352437 -39.62913704 54.61694145 C-39.23630755 52.86727447 -38.8467848 51.1168611 -38.46090508 49.36564827 C-30.63896048 13.91482717 -30.63896048 13.91482717 -15.12426758 3.63037109 C-10.10223859 0.96799715 -5.662993 0.03813769 0 0 Z " fill="#0B0B0B" transform="translate(646.596923828125,400.70947265625)"/>
<path d="M0 0 C1.73448022 0.00747334 3.46896896 0.0131611 5.20346069 0.01715088 C9.73769009 0.03232129 14.27139554 0.07152735 18.80541992 0.1159668 C23.44442663 0.15710646 28.08351915 0.17520157 32.72265625 0.1953125 C41.80231177 0.23803129 50.88158083 0.30617656 59.9609375 0.390625 C59.37947519 7.8205993 58.17118234 15.0083712 56.67578125 22.3046875 C56.45523575 23.40034027 56.23469025 24.49599304 56.00746155 25.62484741 C55.3090032 29.08937772 54.603835 32.55250162 53.8984375 36.015625 C53.42077809 38.37881617 52.94356018 40.74209663 52.46679688 43.10546875 C51.30327909 48.86822952 50.13426433 54.62985386 48.9609375 60.390625 C43.20923555 62.07671777 38.67559018 59.38308472 33.2734375 57.265625 C32.20287109 56.87375 31.13230469 56.481875 30.02929688 56.078125 C29.01287109 55.68367188 27.99644531 55.28921875 26.94921875 54.8828125 C26.01634033 54.52558105 25.08346191 54.16834961 24.12231445 53.80029297 C21.9609375 52.390625 21.9609375 52.390625 21.14428711 49.88183594 C20.91006978 46.69947424 21.13252956 43.64922216 21.4140625 40.4765625 C21.13428279 38.19428279 21.13428279 38.19428279 18.97265625 36.640625 C15.03967733 35.00826021 11.73728111 34.94972649 7.5234375 35.015625 C6.41645508 34.99822266 6.41645508 34.99822266 5.28710938 34.98046875 C0.46466973 35.00618843 -2.86786797 35.74304045 -7.0390625 38.390625 C-11.58067142 44.0369496 -12.44504621 49.12277825 -12.3046875 56.1875 C-11.86132269 59.8648199 -10.51778527 61.67007562 -8.0390625 64.390625 C-0.38388394 70.17848192 8.27999799 74.5045255 16.72265625 79.00390625 C26.20073625 84.18741163 35.21835076 89.78662922 38.9609375 100.390625 C41.55068987 109.61932047 39.15036761 118.69508756 37.2109375 127.828125 C36.95828125 129.08689453 36.705625 130.34566406 36.4453125 131.64257812 C33.24467476 146.98163448 28.08207822 159.07242491 14.9609375 168.390625 C7.1590749 172.35534511 0.44387587 174.51899734 -8.28613281 174.50415039 C-9.3696553 174.50436943 -9.3696553 174.50436943 -10.47506714 174.5045929 C-12.85580478 174.50389784 -15.23646358 174.4961245 -17.6171875 174.48828125 C-19.27056841 174.48641563 -20.92394988 174.4849924 -22.57733154 174.48399353 C-26.92400647 174.48017973 -31.27064787 174.47035915 -35.61730957 174.45928955 C-40.05476427 174.44905099 -44.49222439 174.44449067 -48.9296875 174.43945312 C-57.63282787 174.42873586 -66.33594101 174.41167309 -75.0390625 174.390625 C-74.39914793 167.3944969 -73.13075595 160.70848559 -71.5703125 153.86328125 C-71.20975769 152.25808876 -71.20975769 152.25808876 -70.84191895 150.62046814 C-70.33654252 148.37528151 -69.82881529 146.13062286 -69.31884766 143.88647461 C-68.53621058 140.44056816 -67.76168491 136.99291115 -66.98828125 133.54492188 C-66.49526507 131.35926816 -66.00179181 129.17371749 -65.5078125 126.98828125 C-65.27549927 125.95502213 -65.04318604 124.921763 -64.80383301 123.85719299 C-64.58690796 122.90537643 -64.36998291 121.95355988 -64.14648438 120.97290039 C-63.95630737 120.13400772 -63.76613037 119.29511505 -63.57019043 118.43080139 C-63.0390625 116.390625 -63.0390625 116.390625 -62.0390625 114.390625 C-55.13913982 115.72428249 -48.9577894 117.82422777 -42.4765625 120.515625 C-41.56326172 120.88816406 -40.64996094 121.26070312 -39.70898438 121.64453125 C-37.48299178 122.55357534 -35.25986806 123.4689987 -33.0390625 124.390625 C-33.71487773 130.47296206 -34.77544278 136.40376652 -36.0390625 142.390625 C-32.70512123 142.27943336 -29.37217901 142.14912766 -26.0390625 142.015625 C-24.63720703 141.96921875 -24.63720703 141.96921875 -23.20703125 141.921875 C-13.10478902 141.53458626 -13.10478902 141.53458626 -4.1640625 137.265625 C-1.51398255 133.68022272 -0.63884885 130.75933909 -0.0390625 126.390625 C0.05632812 125.72675781 0.15171875 125.06289063 0.25 124.37890625 C0.60666703 119.60144519 -0.51973042 116.22130779 -3.26953125 112.3125 C-7.41936647 107.8053942 -12.95128055 105.11625087 -18.24169922 102.15966797 C-46.01401263 86.62330528 -46.01401263 86.62330528 -50.63671875 71.42578125 C-53.94109497 54.71141221 -48.11187142 30.52669824 -39.63671875 15.984375 C-29.43772095 1.48394311 -16.68600324 -0.21245122 0 0 Z " fill="#0B0B0B" transform="translate(434.0390625,400.609375)"/>
<path d="M0 0 C33.66 0 67.32 0 102 0 C101.36799061 5.68808453 100.84696948 10.22641953 99.37109375 15.56640625 C98.94848267 17.11630249 98.94848267 17.11630249 98.51733398 18.69750977 C98.16098877 19.97295654 97.80464355 21.24840332 97.4375 22.5625 C96.303125 26.666875 95.16875 30.77125 94 35 C68.755 35.495 68.755 35.495 43 36 C40.36 46.23 37.72 56.46 35 67 C50.51 67 66.02 67 82 67 C80.8212299 72.30446544 79.64233554 77.53771377 78.2734375 82.78515625 C77.99419434 83.85902588 77.71495117 84.93289551 77.42724609 86.03930664 C77.08000488 87.36696045 76.73276367 88.69461426 76.375 90.0625 C75.26125 94.331875 74.1475 98.60125 73 103 C49.735 103.495 49.735 103.495 26 104 C21.545 121.82 21.545 121.82 17 140 C35.81 140 54.62 140 74 140 C72.43762693 147.0306788 70.75893713 153.97526706 68.9375 160.9375 C68.66873047 161.97712891 68.39996094 163.01675781 68.12304688 164.08789062 C67.86458984 165.07853516 67.60613281 166.06917969 67.33984375 167.08984375 C66.98974243 168.43357056 66.98974243 168.43357056 66.63256836 169.80444336 C66 172 66 172 65 174 C34.31 174 3.62 174 -28 174 C-23.41315077 151.06575387 -23.41315077 151.06575387 -21.6953125 143.7265625 C-21.49477768 142.85756821 -21.29424286 141.98857391 -21.08763123 141.09324646 C-20.65843422 139.23417716 -20.22801568 137.37538948 -19.79641724 135.51687622 C-18.59861904 130.35781278 -17.41095738 125.196414 -16.22265625 120.03515625 C-15.96840378 118.93161301 -15.71415131 117.82806976 -15.45219421 116.69108582 C-13.38220525 107.69354708 -11.34029096 98.68983758 -9.30859375 89.68359375 C-9.15283371 88.99316986 -8.99707367 88.30274597 -8.83659363 87.59140015 C-7.29319469 80.74872359 -5.75208762 73.90553192 -4.21223068 67.0620575 C-3.49746731 63.88630855 -2.78183388 60.7107556 -2.06640625 57.53515625 C-1.79727417 56.33767761 -1.52814209 55.14019897 -1.25085449 53.90643311 C-0.09894108 48.79585782 1.06368506 43.68966563 2.29736328 38.59814453 C2.48823013 37.8083873 2.67909698 37.01863007 2.87574768 36.2049408 C3.36304704 34.20505575 3.85892318 32.20726551 4.35571289 30.2097168 C6.02929524 21.87224537 3.51098557 14.77266201 0.83984375 6.8828125 C0 4 0 4 0 0 Z " fill="#0B0B0B" transform="translate(863,401)"/>
<path d="M0 0 C36.63 0 73.26 0 111 0 C109.875 11.25 109.875 11.25 108.58984375 16.4453125 C108.22814087 17.9305542 108.22814087 17.9305542 107.85913086 19.44580078 C107.55499268 20.65993652 107.25085449 21.87407227 106.9375 23.125 C105.968125 27.04375 104.99875 30.9625 104 35 C92.12 35.33 80.24 35.66 68 36 C63.57941543 55.00851364 59.30409967 74.04368642 55.11120224 93.10330582 C54.6183736 95.34260886 54.12491954 97.58177319 53.6312561 99.82089233 C50.50275802 114.01089156 47.37611443 128.20122449 44.31640625 142.40625 C44.12641052 143.28822556 43.93641479 144.17020111 43.74066162 145.0789032 C42.90868688 148.94593911 42.08046736 152.81372838 41.25830078 156.68286133 C41.11480698 157.35397949 40.97131317 158.02509766 40.82347107 158.71655273 C40.45502024 160.43997368 40.08906478 162.16392764 39.72338867 163.88793945 C38.93303633 167.28808165 37.95899412 170.64352058 37 174 C24.46 174 11.92 174 -1 174 C1.24844844 160.50930937 1.24844844 160.50930937 2.57617188 154.63183594 C2.72213303 153.98064537 2.86809418 153.3294548 3.01847839 152.65853119 C3.33377469 151.25329273 3.65050833 149.8483761 3.96858215 148.44376373 C4.86229537 144.49596918 5.74439968 140.54556857 6.62890625 136.59570312 C6.91360149 135.32664816 6.91360149 135.32664816 7.20404816 134.03195572 C9.55283467 123.5542643 11.85347728 113.06600549 14.15625 102.578125 C14.59770787 100.56880043 15.03919555 98.5594824 15.48071289 96.5501709 C16.59436619 91.48150664 17.70752099 86.41273303 18.82055664 81.34393311 C19.97379812 76.09249904 21.12754959 70.84117701 22.28125 65.58984375 C24.52131451 55.39333481 26.76079543 45.19669783 29 35 C17.12 35 5.24 35 -7 35 C-5.04402816 23.26416898 -2.52742677 11.62616315 0 0 Z " fill="#0B0B0B" transform="translate(502,401)"/>
<path d="M0 0 C12.21 0 24.42 0 37 0 C34.74991771 13.50049376 34.74991771 13.50049376 33.66235352 18.29199219 C33.29478188 19.92287277 33.29478188 19.92287277 32.91978455 21.58670044 C32.65879471 22.72855804 32.39780487 23.87041565 32.12890625 25.046875 C31.85079605 26.27598602 31.57268585 27.50509705 31.28614807 28.77145386 C30.53680331 32.07974849 29.78442765 35.38732381 29.03055573 38.69458771 C28.39960823 41.46532028 27.77132947 44.23665507 27.14310074 47.00800514 C22.72332501 66.5051602 18.26073775 85.99251765 13.77929688 105.47558594 C10.52362798 119.64194546 7.34087106 133.82358066 4.24624634 148.02603149 C2.31690967 156.74111297 0.16863836 165.32544656 -2 174 C-14.21 174 -26.42 174 -39 174 C-37.8750549 163.87549407 -37.8750549 163.87549407 -37.00366211 160.05151367 C-36.71164413 158.75296196 -36.71164413 158.75296196 -36.41372681 157.42817688 C-36.2037204 156.5173082 -35.99371399 155.60643951 -35.77734375 154.66796875 C-35.55670258 153.69252609 -35.3360614 152.71708344 -35.10873413 151.71208191 C-34.38942125 148.53619703 -33.66341176 145.3618824 -32.9375 142.1875 C-32.42872897 139.94560037 -31.92051595 137.70357405 -31.4128418 135.46142578 C-30.40090259 130.99294999 -29.38710869 126.52490164 -28.37207031 122.05712891 C-26.8063604 115.15627382 -25.27156499 108.24884703 -23.74645996 101.33892822 C-22.17425222 94.22374839 -20.58560065 87.11220383 -19 80 C-18.70666021 78.6834931 -18.41332558 77.36698505 -18.11999512 76.05047607 C-16.19708948 67.42200201 -14.26955657 58.79457833 -12.3355093 50.16859436 C-11.42349022 46.10053346 -10.51305591 42.03213357 -9.6065979 37.96282959 C-8.74330987 34.08771394 -7.8754462 30.21364951 -7.00432205 26.34028816 C-6.68018399 24.89545741 -6.35763781 23.45026846 -6.03681564 22.0046978 C-5.58971358 19.99146056 -5.13670661 17.97963342 -4.68237305 15.96801758 C-4.42892624 14.83527908 -4.17547943 13.70254059 -3.91435242 12.53547668 C-2.81830307 8.29744238 -1.38427811 4.15283434 0 0 Z " fill="#0B0B0B" transform="translate(222,401)"/>
<path d="M0 0 C0.6909375 -0.020625 1.381875 -0.04125 2.09375 -0.0625 C7.19366799 -0.10084525 10.72627683 0.86054623 15.25 3.25 C19.53340751 11.81681502 14.28167098 25.62402408 12.3125 34.4375 C11.90616529 36.28730912 11.50041231 38.13724612 11.09521484 39.98730469 C10.04092386 44.78290309 8.97123606 49.57492438 7.8961792 54.36590576 C7.25702932 57.21862601 6.62231983 60.07230098 5.98876953 62.92626953 C4.98694777 67.43383941 3.97500424 71.93901205 2.95407104 76.44229126 C2.57051044 78.13644661 2.18907304 79.83108417 1.80984497 81.5262146 C1.27958858 83.88915624 0.73898694 86.2494895 0.1953125 88.609375 C0.04248306 89.29818253 -0.11034637 89.98699005 -0.26780701 90.69667053 C-1.51309644 96.01895289 -3.18305282 101.86707617 -7.75 105.25 C-12.86897163 107.39539335 -17.42415711 107.55335246 -22.875 107.5 C-24.07189453 107.51160156 -24.07189453 107.51160156 -25.29296875 107.5234375 C-32.73689881 107.49858298 -32.73689881 107.49858298 -35.75 105.25 C-39.03631691 100.32052463 -38.14357889 94.80946438 -37.08683777 89.13301086 C-36.78258882 87.71588991 -36.46828238 86.30090023 -36.14526367 84.88793945 C-35.97451828 84.10622375 -35.80377289 83.32450806 -35.62785339 82.519104 C-35.06730744 79.96497766 -34.49310929 77.41415736 -33.91796875 74.86328125 C-33.5209881 73.07461189 -33.12462062 71.28580635 -32.72883606 69.49687195 C-31.90010212 65.76109283 -31.06470303 62.02688671 -30.22436523 58.29370117 C-29.14989357 53.5183395 -28.09109823 48.73966571 -27.03711987 43.95974445 C-26.22198914 40.27034854 -25.3991382 36.58270805 -24.57390785 32.89555931 C-24.18056577 31.13426773 -23.7894748 29.3724718 -23.40071678 27.61016273 C-22.85585632 25.14625607 -22.30076153 22.68487246 -21.74291992 20.22387695 C-21.58539246 19.50217819 -21.42786499 18.78047943 -21.26556396 18.03691101 C-19.49852437 10.35005716 -17.01363409 5.81723319 -10.75 1.25 C-7.12762495 0.04254165 -3.7729405 0.02753971 0 0 Z " fill="#FCFCFC" transform="translate(665.75,434.75)"/>
<path d="M0 0 C4.41661151 -0.05804281 8.83312496 -0.09361104 13.25 -0.125 C14.50425781 -0.14175781 15.75851562 -0.15851563 17.05078125 -0.17578125 C18.25605469 -0.18222656 19.46132813 -0.18867188 20.703125 -0.1953125 C22.36843262 -0.21102295 22.36843262 -0.21102295 24.06738281 -0.22705078 C26.96848002 -0.00244036 28.58158094 0.43048108 31 2 C33.56158596 5.45814105 33.14263038 8.82763939 33 13 C32.62892526 15.23719787 32.18739273 17.46353333 31.68652344 19.67529297 C31.25542267 21.60427933 31.25542267 21.60427933 30.81561279 23.57223511 C30.49704259 24.96225952 30.17829189 26.35224258 29.859375 27.7421875 C29.53202324 29.1934716 29.20531389 30.64490074 28.87921143 32.09646606 C28.0193782 35.91530962 27.15046788 39.73203253 26.27972412 43.54840088 C25.40854391 47.37470789 24.54663874 51.20310161 23.68359375 55.03125 C20.40517372 69.55063178 20.40517372 69.55063178 18.92419434 75.95111084 C18.26259821 78.81890603 17.63546932 81.69238341 17.02209473 84.57086182 C16.68833989 86.09039633 16.3544802 87.60990782 16.02050781 89.12939453 C15.87743572 89.82787947 15.73436363 90.5263644 15.58695602 91.24601555 C14.54752855 95.89430967 12.94170148 99.25887105 10 103 C4.92469112 106.06633245 0.66116301 107.13175095 -5.203125 107.09765625 C-6.1828125 107.09443359 -7.1625 107.09121094 -8.171875 107.08789062 C-9.18765625 107.07951172 -10.2034375 107.07113281 -11.25 107.0625 C-12.796875 107.05573242 -12.796875 107.05573242 -14.375 107.04882812 C-16.91672573 107.03706088 -19.45833319 107.02062011 -22 107 C-23.08654942 103.68281358 -22.88999867 101.43984633 -22.13891602 98.05249023 C-21.81674606 96.56888756 -21.81674606 96.56888756 -21.48806763 95.05531311 C-21.24579437 93.98389572 -21.00352112 92.91247833 -20.75390625 91.80859375 C-20.50760468 90.68726547 -20.2613031 89.56593719 -20.00753784 88.41062927 C-19.20124265 84.75092975 -18.3821019 81.09424032 -17.5625 77.4375 C-17.00659275 74.92804106 -16.45133769 72.41843755 -15.89672852 69.90869141 C-11.69069646 50.91802205 -7.39416074 31.94798397 -3 13 C-2.42808582 10.52350667 -1.85645652 8.04694753 -1.28515625 5.5703125 C-1.03773682 4.49797363 -0.79031738 3.42563477 -0.53540039 2.32080078 C-0.2703772 1.17200439 -0.2703772 1.17200439 0 0 Z " fill="#FCFCFC" transform="translate(305,436)"/>
<path d="M0 0 C1.14597656 -0.03738281 2.29195312 -0.07476562 3.47265625 -0.11328125 C11.76466762 -0.20015913 11.76466762 -0.20015913 16.109375 2.3359375 C18.46523859 6.69989434 17.77857367 9.6519767 16.75 14.375 C16.58822266 15.2004834 16.42644531 16.0259668 16.25976562 16.87646484 C15.72694435 19.45391348 15.12327366 22.00552948 14.5 24.5625 C14.30792969 25.42552734 14.11585938 26.28855469 13.91796875 27.17773438 C12.54759756 32.81004617 10.98113317 36.35041623 6.75 40.375 C3.12600838 42.16316128 0.24970967 42.61522022 -3.76953125 42.5703125 C-5.3019043 42.56064453 -5.3019043 42.56064453 -6.86523438 42.55078125 C-7.92033203 42.53402344 -8.97542969 42.51726562 -10.0625 42.5 C-11.13693359 42.49097656 -12.21136719 42.48195313 -13.31835938 42.47265625 C-15.96246854 42.44915306 -18.60611872 42.41629575 -21.25 42.375 C-20.81649748 33.96372397 -19.20485442 25.95059728 -17.23876953 17.78271484 C-16.74288162 15.72039581 -16.25933486 13.65545047 -15.77734375 11.58984375 C-13.00292538 -0.15108773 -12.00098342 0.14651589 0 0 Z " fill="#FCFCFC" transform="translate(791.25,435.625)"/>
<path d="M0 0 C16.5 0 33 0 50 0 C50 0.33 50 0.66 50 1 C43.54520675 1.57766519 37.08966059 2.1462932 30.63354492 2.70898438 C28.44261142 2.9009709 26.25185049 3.09493837 24.0612793 3.29101562 C0.70932381 5.37857926 0.70932381 5.37857926 -10 5 C-10 4.67 -10 4.34 -10 4 C-5.9472484 3.01751476 -2.16138263 2.91840426 2 3 C2 2.34 2 1.68 2 1 C1.34 0.67 0.68 0.34 0 0 Z " fill="#0A0A09" transform="translate(417,590)"/>
<path d="M0 0 C11.22 0 22.44 0 34 0 C34 0.33 34 0.66 34 1 C33.113125 1.28875 32.22625 1.5775 31.3125 1.875 C28.12827603 2.88254443 28.12827603 2.88254443 25.73046875 4.08984375 C22.26474538 5.24508487 19.63305825 5.00693203 16 4.6875 C14.68902344 4.57921875 13.37804687 4.4709375 12.02734375 4.359375 C11.3607373 4.29943359 10.69413086 4.23949219 10.00732422 4.17773438 C6.86147891 3.899192 3.71188222 3.67206516 0.5625 3.4375 C-1.29172921 3.29246402 -3.14592154 3.14695057 -5 3 C-5 2.67 -5 2.34 -5 2 C-3.35 1.67 -1.7 1.34 0 1 C0 0.67 0 0.34 0 0 Z " fill="#181816" transform="translate(525,591)"/>
<path d="M0 0 C10.56 0 21.12 0 32 0 C32 0.33 32 0.66 32 1 C17.645 1.99 17.645 1.99 3 3 C3 2.34 3 1.68 3 1 C2.01 0.67 1.02 0.34 0 0 Z " fill="#21211F" transform="translate(422,591)"/>
<path d="M0 0 C7.92 0 15.84 0 24 0 C24 0.33 24 0.66 24 1 C20.66729126 1.33977725 17.33375214 1.67063063 14 2 C12.59814453 2.14308594 12.59814453 2.14308594 11.16796875 2.2890625 C5.74681677 2.81980465 0.44677829 3.1027694 -5 3 C-5 2.67 -5 2.34 -5 2 C-3.35 1.67 -1.7 1.34 0 1 C0 0.67 0 0.34 0 0 Z " fill="#141312" transform="translate(525,591)"/>
<path d="M0 0 C4.62 0 9.24 0 14 0 C14 0.66 14 1.32 14 2 C13.39671875 2.13277344 12.7934375 2.26554688 12.171875 2.40234375 C11.37265625 2.57894531 10.5734375 2.75554688 9.75 2.9375 C8.96109375 3.11152344 8.1721875 3.28554688 7.359375 3.46484375 C5.23121297 3.947556 3.11467158 4.46163178 1 5 C0.67 3.35 0.34 1.7 0 0 Z " fill="#151513" transform="translate(405,591)"/>
<path d="M0 0 C2.14005895 1.72221103 2.93462864 2.57895219 3.36328125 5.33984375 C3.34652344 6.19707031 3.32976563 7.05429687 3.3125 7.9375 C3.30863281 8.79214844 3.30476562 9.64679688 3.30078125 10.52734375 C2.98780141 13.10028192 2.29573378 14.77505475 1 17 C-0.53266582 13.93466836 -0.10276471 10.73245728 -0.0625 7.375 C-0.05798828 6.66859375 -0.05347656 5.9621875 -0.04882812 5.234375 C-0.03703875 3.48954725 -0.01910324 1.744763 0 0 Z " fill="#141313" transform="translate(848,416)"/>
<path d="M0 0 C0 0.66 0 1.32 0 2 C0.99 2.33 1.98 2.66 3 3 C0.77090129 3.02714735 -1.45829367 3.04646254 -3.6875 3.0625 C-4.92886719 3.07410156 -6.17023437 3.08570313 -7.44921875 3.09765625 C-10.46235454 3.01478673 -13.08275339 2.70839449 -16 2 C-16 1.67 -16 1.34 -16 1 C-10.59255982 0.22750855 -5.46137814 -0.09752461 0 0 Z " fill="#0B0B0A" transform="translate(544,592)"/>
<path d="M0 0 C0.66 0.33 1.32 0.66 2 1 C1.34 5.29 0.68 9.58 0 14 C0.66 14.33 1.32 14.66 2 15 C0.35 15.33 -1.3 15.66 -3 16 C-2.40984815 10.49191603 -1.43336231 5.35121931 0 0 Z " fill="#111111" transform="translate(59,570)"/>
<path d="M0 0 C5.94 0 11.88 0 18 0 C17.67 0.66 17.34 1.32 17 2 C11.20447483 3.35639951 5.85868765 2.76622676 0 2 C0 1.34 0 0.68 0 0 Z " fill="#050504" transform="translate(106,401)"/>
<path d="M0 0 C-0.99 0 -1.98 0 -3 0 C-3 0.66 -3 1.32 -3 2 C-3.99 2 -4.98 2 -6 2 C-6.33 3.32 -6.66 4.64 -7 6 C-8.65 5.67 -10.3 5.34 -12 5 C-12 4.01 -12 3.02 -12 2 C-10.75579353 1.4654744 -9.50429064 0.94791389 -8.25 0.4375 C-7.55390625 0.14746094 -6.8578125 -0.14257812 -6.140625 -0.44140625 C-3.69987216 -1.07831803 -2.3596345 -0.80248831 0 0 Z " fill="#161616" transform="translate(644,402)"/>
<path d="M0 0 C2.42177658 3.4189787 2.03544936 6.15661616 1.42578125 10.09375 C0.93662848 12.28371837 0.18968736 14.09650022 -1 16 C-1.66 16 -2.32 16 -3 16 C-2.40984815 10.49191603 -1.43336231 5.35121931 0 0 Z " fill="#131212" transform="translate(727,492)"/>
<path d="M0 0 C0.99 0.33 1.98 0.66 3 1 C3 1.99 3 2.98 3 4 C-2.28 3.67 -7.56 3.34 -13 3 C-13 2.67 -13 2.34 -13 2 C-12.14535156 1.93941406 -11.29070313 1.87882813 -10.41015625 1.81640625 C-8.75306641 1.69072266 -8.75306641 1.69072266 -7.0625 1.5625 C-5.96035156 1.48128906 -4.85820313 1.40007813 -3.72265625 1.31640625 C-1.08890097 1.29581916 -1.08890097 1.29581916 0 0 Z " fill="#363635" transform="translate(833,619)"/>
<path d="M0 0 C0.66 0.33 1.32 0.66 2 1 C2 3.66666667 2 6.33333333 2 9 C2.33 9.66 2.66 10.32 3 11 C1.35 11 -0.3 11 -2 11 C-1.34 7.37 -0.68 3.74 0 0 Z " fill="#111011" transform="translate(837,564)"/>
<path d="M0 0 C0.99 0.33 1.98 0.66 3 1 C2.67 3.97 2.34 6.94 2 10 C1.01 9.67 0.02 9.34 -1 9 C-1.125 2.25 -1.125 2.25 0 0 Z " fill="#181817" transform="translate(609,406)"/>
<path d="M0 0 C2.3828125 -0.29296875 2.3828125 -0.29296875 5.125 -0.1875 C6.03507813 -0.16042969 6.94515625 -0.13335938 7.8828125 -0.10546875 C8.58148437 -0.07066406 9.28015625 -0.03585937 10 0 C10.33 0.66 10.66 1.32 11 2 C4.565 2.495 4.565 2.495 -2 3 C-1.34 2.01 -0.68 1.02 0 0 Z " fill="#222120" transform="translate(617,600)"/>
<path d="M0 0 C0.66 0.33 1.32 0.66 2 1 C2 2.32 2 3.64 2 5 C1.34 5 0.68 5 0 5 C-0.144375 5.598125 -0.28875 6.19625 -0.4375 6.8125 C-0.8872439 8.56150404 -1.42892341 10.28677023 -2 12 C-2.66 12 -3.32 12 -4 12 C-3.52309796 10.37433394 -3.04340334 8.74948689 -2.5625 7.125 C-2.29566406 6.22007812 -2.02882813 5.31515625 -1.75390625 4.3828125 C-1 2 -1 2 0 0 Z " fill="#1D1E1D" transform="translate(393,419)"/>
<path d="M0 0 C2.14720899 2.14720899 2.5434221 3.07790143 3 6 C2.67 6.66 2.34 7.32 2 8 C1.34 8 0.68 8 0 8 C-0.33 8.99 -0.66 9.98 -1 11 C-2.31625194 8.36749612 -1.74813658 7.19820944 -1.0625 4.375 C-0.86785156 3.55773437 -0.67320312 2.74046875 -0.47265625 1.8984375 C-0.23869141 0.95871094 -0.23869141 0.95871094 0 0 Z " fill="#191919" transform="translate(605,465)"/>
<path d="M0 0 C1.45047396 2.90094791 0.45356803 4.55972596 -0.4375 7.625 C-0.86869141 9.12933594 -0.86869141 9.12933594 -1.30859375 10.6640625 C-1.53675781 11.43492187 -1.76492188 12.20578125 -2 13 C-2.33 13 -2.66 13 -3 13 C-3.33 10.69 -3.66 8.38 -4 6 C-3.34 6 -2.68 6 -2 6 C-1.855625 5.195625 -1.71125 4.39125 -1.5625 3.5625 C-1 1 -1 1 0 0 Z " fill="#1C1C1C" transform="translate(902,447)"/>
<path d="M0 0 C0.66 0.33 1.32 0.66 2 1 C2 2.98 2 4.96 2 7 C1.34 7 0.68 7 0 7 C0 8.32 0 9.64 0 11 C-0.66 11 -1.32 11 -2 11 C-1.34 7.37 -0.68 3.74 0 0 Z " fill="#181818" transform="translate(220,406)"/>
<path d="M0 0 C2.97 0.495 2.97 0.495 6 1 C5.01 1.33 4.02 1.66 3 2 C2.67 2.99 2.34 3.98 2 5 C1.01 5 0.02 5 -1 5 C-0.67 3.35 -0.34 1.7 0 0 Z " fill="#151313" transform="translate(372,515)"/>
<path d="M0 0 C0.66 0 1.32 0 2 0 C1.42647107 3.87132028 -0.48704352 6.08172796 -3 9 C-3.66 8.67 -4.32 8.34 -5 8 C-4.21718695 6.66144944 -3.42348123 5.32926356 -2.625 4 C-2.18414062 3.2575 -1.74328125 2.515 -1.2890625 1.75 C-0.86367187 1.1725 -0.43828125 0.595 0 0 Z " fill="#141414" transform="translate(170,402)"/>
<path d="M0 0 C0.66 0 1.32 0 2 0 C2 2.31 2 4.62 2 7 C1.34 7 0.68 7 0 7 C-0.33 7.99 -0.66 8.98 -1 10 C-2.27351308 7.45297384 -1.80191925 6.5717055 -1.0625 3.875 C-0.86785156 3.15054687 -0.67320312 2.42609375 -0.47265625 1.6796875 C-0.31667969 1.12539063 -0.16070313 0.57109375 0 0 Z " fill="#181817" transform="translate(613,430)"/>
<path d="M0 0 C1.65 0 3.3 0 5 0 C5.33 0.66 5.66 1.32 6 2 C3.24921116 2.91692961 1.64051087 3.10886083 -1.1875 3.0625 C-3.0746875 3.0315625 -3.0746875 3.0315625 -5 3 C-5 2.67 -5 2.34 -5 2 C-3.35 1.67 -1.7 1.34 0 1 C0 0.67 0 0.34 0 0 Z " fill="#2A2928" transform="translate(525,591)"/>
</svg>
